<svg width="304px" height="40px" viewBox="0 0 304 40" version="1.1" xmlns="http://www.w3.org/2000/svg" xmlns:xlink="http://www.w3.org/1999/xlink">

    <g id="Page-1" stroke="none" stroke-width="1" fill="none" fill-rule="evenodd">
        <g id="Group">
            <g id="label" fill="#202224" opacity="0.2">
                <path d="M0,0 L0,40 L304,40 L304,0 L0,0 Z M25.733,24.825 L22.003,24.825 L22.003,15.165 L25.719,15.165 C28.672,15.165 30.721,17.091 30.721,19.988 C30.72,22.913 28.672,24.825 25.733,24.825 Z M37.756,24.825 L35.905,21.393 L34.435,21.393 L34.435,24.825 L32.43,24.825 L32.43,15.165 L36.839,15.165 C38.803,15.165 40.018,16.483 40.018,18.279 C40.018,19.974 38.958,20.9 37.941,21.147 L40.075,24.826 L37.756,24.826 L37.756,24.825 Z M48.311,24.825 L47.717,23.188 L43.676,23.188 L43.082,24.825 L40.807,24.825 L44.438,15.165 L46.953,15.165 L50.584,24.825 L48.311,24.825 Z M59.841,23.188 C58.88,24.289 57.538,24.998 55.842,24.998 C53.072,24.998 50.812,23.043 50.812,20.001 C50.812,16.945 53.073,15.005 55.842,15.005 C57.792,15.005 59.021,16.019 59.728,17.163 L58.075,18.09 C57.637,17.409 56.832,16.83 55.843,16.83 C54.119,16.83 52.876,18.177 52.876,20.002 C52.876,21.827 54.119,23.174 55.843,23.174 C56.677,23.174 57.454,22.798 57.835,22.435 L57.835,21.276 L55.348,21.276 L55.348,19.48 L59.841,19.48 L59.841,23.188 L59.841,23.188 Z M70.748,24.825 L65.633,24.825 L65.633,15.165 L70.593,15.165 C72.387,15.165 73.306,16.338 73.306,17.627 C73.306,18.829 72.571,19.654 71.681,19.843 C72.698,20.002 73.49,21.002 73.49,22.204 C73.489,23.666 72.557,24.825 70.748,24.825 L70.748,24.825 Z M81.204,24.825 L75.199,24.825 L75.199,15.165 L77.22,15.165 L77.22,23.015 L81.205,23.015 L81.205,24.825 L81.204,24.825 Z M86.94,24.999 C84.086,24.999 82.009,22.913 82.009,20.002 C82.009,17.091 84.086,15.006 86.94,15.006 C89.78,15.006 91.857,17.092 91.857,20.002 C91.857,22.913 89.78,24.999 86.94,24.999 Z M98.131,23.174 C99.092,23.174 99.94,22.551 100.335,21.769 L102.059,22.623 C101.395,23.825 100.194,24.998 98.131,24.998 C95.291,24.998 93.101,22.97 93.101,20.001 C93.101,17.018 95.291,15.005 98.131,15.005 C100.194,15.005 101.395,16.149 102.059,17.366 L100.335,18.235 C99.939,17.453 99.092,16.83 98.131,16.83 C96.407,16.83 95.164,18.177 95.164,20.002 C95.164,21.827 96.407,23.174 98.131,23.174 L98.131,23.174 Z M109.138,24.825 L106.284,20.944 L105.549,21.856 L105.549,24.825 L103.543,24.825 L103.543,15.165 L105.549,15.165 L105.549,19.466 L108.884,15.165 L111.357,15.165 L107.613,19.698 L111.612,24.825 L109.138,24.825 L109.138,24.825 Z M116.174,24.999 C114.351,24.999 113.051,24.376 112.161,23.464 L113.263,21.856 C113.927,22.566 114.958,23.174 116.258,23.174 C117.374,23.174 117.897,22.667 117.897,22.102 C117.897,20.422 112.471,21.595 112.471,17.96 C112.471,16.352 113.827,15.02 116.046,15.02 C117.544,15.02 118.787,15.483 119.72,16.367 L118.604,17.902 C117.841,17.178 116.824,16.845 115.863,16.845 C115.015,16.845 114.535,17.221 114.535,17.801 C114.535,19.322 119.947,18.293 119.947,21.9 C119.946,23.666 118.703,24.999 116.174,24.999 L116.174,24.999 Z M132.154,16.975 L127.491,16.975 L127.491,19.003 L132.055,19.003 L132.055,20.813 L127.491,20.813 L127.491,24.825 L125.485,24.825 L125.485,15.165 L132.154,15.165 L132.154,16.975 L132.154,16.975 Z M139.162,24.825 L137.311,21.393 L135.841,21.393 L135.841,24.825 L133.835,24.825 L133.835,15.165 L138.244,15.165 C140.208,15.165 141.423,16.483 141.423,18.279 C141.423,19.974 140.363,20.9 139.346,21.147 L141.48,24.826 L139.162,24.826 L139.162,24.825 Z M147.682,24.999 C144.828,24.999 142.751,22.913 142.751,20.002 C142.751,17.091 144.828,15.006 147.682,15.006 C150.522,15.006 152.599,17.092 152.599,20.002 C152.599,22.913 150.522,24.999 147.682,24.999 Z M164.51,24.825 L162.489,24.825 L162.489,17.859 L159.833,24.825 L158.957,24.825 L156.301,17.859 L156.301,24.825 L154.295,24.825 L154.295,15.165 L157.107,15.165 L159.396,21.204 L161.685,15.165 L164.511,15.165 L164.511,24.825 L164.51,24.825 Z M177.509,16.975 L174.768,16.975 L174.768,24.825 L172.747,24.825 L172.747,16.975 L169.992,16.975 L169.992,15.165 L177.509,15.165 L177.509,16.975 Z M187.555,24.825 L185.534,24.825 L185.534,20.755 L181.083,20.755 L181.083,24.825 L179.077,24.825 L179.077,15.165 L181.083,15.165 L181.083,18.959 L185.534,18.959 L185.534,15.165 L187.555,15.165 L187.555,24.825 Z M196.357,16.975 L191.694,16.975 L191.694,19.003 L196.258,19.003 L196.258,20.813 L191.694,20.813 L191.694,23.014 L196.357,23.014 L196.357,24.824 L189.688,24.824 L189.688,15.164 L196.357,15.164 L196.357,16.975 L196.357,16.975 Z M208.042,24.825 L202.037,24.825 L202.037,15.165 L204.058,15.165 L204.058,23.015 L208.043,23.015 L208.043,24.825 L208.042,24.825 Z M216.35,16.975 L211.687,16.975 L211.687,19.003 L216.251,19.003 L216.251,20.813 L211.687,20.813 L211.687,23.014 L216.35,23.014 L216.35,24.824 L209.681,24.824 L209.681,15.164 L216.35,15.164 L216.35,16.975 L216.35,16.975 Z M224.87,16.975 L220.207,16.975 L220.207,19.003 L224.771,19.003 L224.771,20.813 L220.207,20.813 L220.207,24.825 L218.2,24.825 L218.2,15.165 L224.869,15.165 L224.869,16.975 L224.87,16.975 Z M233.489,16.975 L230.748,16.975 L230.748,24.825 L228.727,24.825 L228.727,16.975 L225.972,16.975 L225.972,15.165 L233.489,15.165 L233.489,16.975 Z M243.379,21.378 L240.977,21.378 L240.977,24.825 L238.971,24.825 L238.971,15.165 L243.379,15.165 C245.428,15.165 246.544,16.584 246.544,18.279 C246.544,19.959 245.413,21.378 243.379,21.378 Z M253.552,24.825 L252.959,23.188 L248.918,23.188 L248.324,24.825 L246.049,24.825 L249.68,15.165 L252.195,15.165 L255.826,24.825 L253.552,24.825 Z M265.421,24.825 L263.485,24.825 L258.992,18.525 L258.992,24.825 L256.986,24.825 L256.986,15.165 L259.049,15.165 L263.415,21.233 L263.415,15.165 L265.422,15.165 L265.422,24.825 L265.421,24.825 Z M274.237,16.975 L269.574,16.975 L269.574,19.003 L274.138,19.003 L274.138,20.813 L269.574,20.813 L269.574,23.014 L274.237,23.014 L274.237,24.824 L267.568,24.824 L267.568,15.164 L274.237,15.164 L274.237,16.975 L274.237,16.975 Z M282.008,24.825 L276.003,24.825 L276.003,15.165 L278.024,15.165 L278.024,23.015 L282.009,23.015 L282.009,24.825 L282.008,24.825 Z M147.682,16.83 C145.93,16.83 144.814,18.191 144.814,20.002 C144.814,21.798 145.93,23.174 147.682,23.174 C149.42,23.174 150.536,21.798 150.536,20.002 C150.536,18.192 149.42,16.83 147.682,16.83 Z M243.096,16.975 L240.976,16.975 L240.976,19.567 L243.096,19.567 C243.887,19.567 244.495,19.075 244.495,18.278 C244.495,17.468 243.887,16.975 243.096,16.975 L243.096,16.975 Z M70.239,20.813 L67.639,20.813 L67.639,23.014 L70.239,23.014 C70.988,23.014 71.44,22.608 71.44,21.913 C71.44,21.306 71.016,20.813 70.239,20.813 Z M86.94,16.83 C85.188,16.83 84.072,18.191 84.072,20.002 C84.072,21.798 85.188,23.174 86.94,23.174 C88.678,23.174 89.794,21.798 89.794,20.002 C89.795,18.192 88.678,16.83 86.94,16.83 Z M44.227,21.378 L47.166,21.378 L45.697,17.221 L44.227,21.378 Z M71.257,17.989 C71.257,17.395 70.833,16.975 70.155,16.975 L67.64,16.975 L67.64,19.003 L70.155,19.003 C70.833,19.003 71.257,18.612 71.257,17.989 Z M25.733,16.975 L24.009,16.975 L24.009,23.014 L25.719,23.014 C27.584,23.014 28.672,21.638 28.672,19.987 C28.672,18.293 27.654,16.975 25.733,16.975 Z M137.961,16.975 L135.841,16.975 L135.841,19.582 L137.961,19.582 C138.752,19.582 139.36,19.09 139.36,18.264 C139.36,17.468 138.752,16.975 137.961,16.975 L137.961,16.975 Z M36.555,16.975 L34.435,16.975 L34.435,19.582 L36.555,19.582 C37.346,19.582 37.954,19.09 37.954,18.264 C37.954,17.468 37.347,16.975 36.555,16.975 L36.555,16.975 Z M249.469,21.378 L252.408,21.378 L250.939,17.221 L249.469,21.378 Z" id="Shape"></path>
            </g>
            <rect id="Rectangle" fill="#D2D3D3" x="11" y="11" width="271" height="17"></rect>
            <text id="CLICK-TO-CREATE-PAGE" font-family="Helvetica-Bold, Helvetica" font-size="14" font-weight="bold" fill="#FFFFFF">
                <tspan x="68" y="25">CLICK TO CREATE PAGE</tspan>
            </text>
        </g>
    </g>
</svg>