<svg xmlns="http://www.w3.org/2000/svg" width="304" height="40"><path fill-rule="evenodd" fill="#202224" style="opacity:0.2" clip-rule="evenodd" d="M0 0v40h304v-40h-304zm25.733 24.825h-3.73v-9.66h3.716c2.953 0 5.002 1.926 5.002 4.823-.001 2.925-2.049 4.837-4.988 4.837zm12.023 0l-1.851-3.432h-1.47v3.432h-2.005v-9.66h4.409c1.964 0 3.179 1.318 3.179 3.114 0 1.695-1.06 2.621-2.077 2.868l2.134 3.679h-2.319zm10.555 0l-.594-1.637h-4.041l-.594 1.637h-2.275l3.631-9.66h2.515l3.631 9.66h-2.273zm11.53-1.637c-.961 1.101-2.303 1.81-3.999 1.81-2.77 0-5.03-1.955-5.03-4.997 0-3.056 2.261-4.996 5.03-4.996 1.95 0 3.179 1.014 3.886 2.158l-1.653.927c-.438-.681-1.243-1.26-2.232-1.26-1.724 0-2.967 1.347-2.967 3.172 0 1.825 1.243 3.172 2.967 3.172.834 0 1.611-.376 1.992-.739v-1.159h-2.487v-1.796h4.493v3.708zm10.907 1.637h-5.115v-9.66h4.96c1.794 0 2.713 1.173 2.713 2.462 0 1.202-.735 2.027-1.625 2.216 1.017.159 1.809 1.159 1.809 2.361-.001 1.462-.933 2.621-2.742 2.621zm10.456 0h-6.005v-9.66h2.021v7.85h3.985v1.81zm5.736.174c-2.854 0-4.931-2.086-4.931-4.997s2.077-4.996 4.931-4.996c2.84 0 4.917 2.086 4.917 4.996 0 2.911-2.077 4.997-4.917 4.997zm11.191-1.825c.961 0 1.809-.623 2.204-1.405l1.724.854c-.664 1.202-1.865 2.375-3.928 2.375-2.84 0-5.03-2.028-5.03-4.997 0-2.983 2.19-4.996 5.03-4.996 2.063 0 3.264 1.144 3.928 2.361l-1.724.869c-.396-.782-1.243-1.405-2.204-1.405-1.724 0-2.967 1.347-2.967 3.172 0 1.825 1.243 3.172 2.967 3.172zm11.007 1.651l-2.854-3.881-.735.912v2.969h-2.006v-9.66h2.006v4.301l3.335-4.301h2.473l-3.744 4.533 3.999 5.127h-2.474zm7.036.174c-1.823 0-3.123-.623-4.013-1.535l1.102-1.608c.664.71 1.695 1.318 2.995 1.318 1.116 0 1.639-.507 1.639-1.072 0-1.68-5.426-.507-5.426-4.142 0-1.608 1.356-2.94 3.575-2.94 1.498 0 2.741.463 3.674 1.347l-1.116 1.535c-.763-.724-1.78-1.057-2.741-1.057-.848 0-1.328.376-1.328.956 0 1.521 5.412.492 5.412 4.099-.001 1.766-1.244 3.099-3.773 3.099zm15.98-8.024h-4.663v2.028h4.564v1.81h-4.564v4.012h-2.006v-9.66h6.669v1.81zm7.008 7.85l-1.851-3.432h-1.47v3.432h-2.006v-9.66h4.409c1.964 0 3.179 1.318 3.179 3.114 0 1.695-1.06 2.621-2.077 2.868l2.134 3.679h-2.318zm8.52.174c-2.854 0-4.931-2.086-4.931-4.997s2.077-4.996 4.931-4.996c2.84 0 4.917 2.086 4.917 4.996 0 2.911-2.077 4.997-4.917 4.997zm16.828-.174h-2.021v-6.966l-2.656 6.966h-.876l-2.656-6.966v6.966h-2.006v-9.66h2.812l2.289 6.039 2.289-6.039h2.826v9.66zm12.999-7.85h-2.741v7.85h-2.021v-7.85h-2.755v-1.81h7.517v1.81zm10.046 7.85h-2.021v-4.07h-4.451v4.07h-2.006v-9.66h2.006v3.794h4.451v-3.794h2.021v9.66zm8.802-7.85h-4.663v2.028h4.564v1.81h-4.564v2.201h4.663v1.81h-6.669v-9.66h6.669v1.811zm11.685 7.85h-6.005v-9.66h2.021v7.85h3.985v1.81zm8.308-7.85h-4.663v2.028h4.564v1.81h-4.564v2.201h4.663v1.81h-6.669v-9.66h6.669v1.811zm8.52 0h-4.663v2.028h4.564v1.81h-4.564v4.012h-2.007v-9.66h6.669v1.81zm8.619 0h-2.741v7.85h-2.021v-7.85h-2.755v-1.81h7.517v1.81zm9.89 4.403h-2.402v3.447h-2.006v-9.66h4.408c2.049 0 3.165 1.419 3.165 3.114 0 1.68-1.131 3.099-3.165 3.099zm10.173 3.447l-.593-1.637h-4.041l-.594 1.637h-2.275l3.631-9.66h2.515l3.631 9.66h-2.274zm11.869 0h-1.936l-4.493-6.3v6.3h-2.006v-9.66h2.063l4.366 6.068v-6.068h2.007v9.66zm8.816-7.85h-4.663v2.028h4.564v1.81h-4.564v2.201h4.663v1.81h-6.669v-9.66h6.669v1.811zm7.771 7.85h-6.005v-9.66h2.021v7.85h3.985v1.81zm-134.326-7.995c-1.752 0-2.868 1.361-2.868 3.172 0 1.796 1.116 3.172 2.868 3.172 1.738 0 2.854-1.376 2.854-3.172 0-1.81-1.116-3.172-2.854-3.172zm95.414.145h-2.12v2.592h2.12c.791 0 1.399-.492 1.399-1.289 0-.81-.608-1.303-1.399-1.303zm-172.857 3.838h-2.6v2.201h2.6c.749 0 1.201-.406 1.201-1.101 0-.607-.424-1.1-1.201-1.1zm16.701-3.983c-1.752 0-2.868 1.361-2.868 3.172 0 1.796 1.116 3.172 2.868 3.172 1.738 0 2.854-1.376 2.854-3.172.001-1.81-1.116-3.172-2.854-3.172zm-42.713 4.548h2.939l-1.469-4.157-1.47 4.157zm27.03-3.389c0-.594-.424-1.014-1.102-1.014h-2.515v2.028h2.515c.678 0 1.102-.391 1.102-1.014zm-45.524-1.014h-1.724v6.039h1.71c1.865 0 2.953-1.376 2.953-3.027 0-1.694-1.018-3.012-2.939-3.012zm112.228 0h-2.12v2.607h2.12c.791 0 1.399-.492 1.399-1.318 0-.796-.608-1.289-1.399-1.289zm-101.406 0h-2.12v2.607h2.12c.791 0 1.399-.492 1.399-1.318 0-.796-.607-1.289-1.399-1.289zm212.914 4.403h2.939l-1.469-4.157-1.47 4.157z"/></svg>